<mxfile host="app.diagrams.net" modified="2024-05-13T23:54:55.845Z" agent="Mozilla/5.0 (X11; Linux x86_64; rv:125.0) Gecko/20100101 Firefox/125.0" version="24.4.0" etag="lOUgS8dq3fZi6q82rdPP" type="github">
  <diagram name="Page-1" id="6XR2Yzbt6paxZfj4640B">
    <mxGraphModel>
      <root>
        <mxCell id="0" />
        <mxCell id="1" parent="0" />
      </root>
    </mxGraphModel>
  </diagram>
</mxfile>
